# xmcd
#
# Track frame offsets:
#	150
#	14524
#	26309
#	46023
#	87781
#	107943
#	122820
#	140639
#	149398
#	168954
#	186389
#
# Disc length: 2760 seconds
#
# Revision: 1
# Processed by: cddbd v1.5.2PL0 Copyright (c) Steve Scherf et al.
# Submitted via: EasyCDDAExtractor 9.1.3.1
#
DISCID=930ac60b
DTITLE=Little Texas - The Best of Little Texas, Loud And Proud
DYEAR=2007
DGENRE=Country
TTITLE0=Hello Again
TTITLE1=Life Goes On
TTITLE2=Amy's Back In Austin
TTITLE3=Medley/Some Guys Have All The Love/My Love/First Time For Everything
TTITLE4=Peaceful, Easy Feeling
TTITLE5=Loud and Proud
TTITLE6=Kick A Little
TTITLE7=Medley/You and Forever and Me/I'd Rather Miss You
TTITLE8=What Might Have Been
TTITLE9=Get Back
TTITLE10=God Bless Texas
EXTD=
EXTT0=
EXTT1=
EXTT2=
EXTT3=
EXTT4=
EXTT5=
EXTT6=
EXTT7=
EXTT8=
EXTT9=
EXTT10=
PLAYORDER=
